<svg id="Capa_1" enable-background="new 0 0 512 512" height="512" viewBox="0 0 512 512" width="512" xmlns="http://www.w3.org/2000/svg"><g><path d="m256 0c-140.714 0-256 115.05-256 256 0 140.959 115.05 256 256 256 140.957 0 256-115.048 256-256 0-140.713-115.05-256-256-256zm148.238 85.55-21.452 21.452c-35.534-30.414-79.989-47.002-126.786-47.002s-91.253 16.588-126.786 47.001l-21.452-21.452c39.711-34.58 91.57-55.549 148.238-55.549s108.527 20.969 148.238 55.55zm-53.901 306.959c6.824-14.05 10.663-29.835 10.663-46.509 0-57.897-47.103-105-105-105-41.355 0-75-34.093-75-76 0-41.355 33.645-75 75-75 92.404 0 166 75.476 166 166 0 56.37-28.277 106.432-71.663 136.509zm-260.337-136.509c0-56.298 28.198-106.185 71.248-136.221-6.566 13.702-10.248 29.039-10.248 45.221 0 58.449 47.103 106 105 106 41.355 0 75 33.645 75 75 0 41.907-33.645 76-75 76-91.288 0-166-74.306-166-166zm-3.51-149.297 21.434 21.434c-31.003 35.709-47.924 80.592-47.924 127.863 0 47.034 16.751 91.707 47.459 127.328l-21.439 21.44c-34.858-39.78-56.02-91.846-56.02-148.768 0-57.176 21.354-109.451 56.49-149.297zm20.743 319.277 21.439-21.439c35.622 30.708 80.294 47.459 127.328 47.459s91.706-16.751 127.328-47.459l21.44 21.439c-39.779 34.858-91.846 56.02-148.768 56.02s-108.989-21.162-148.767-56.02zm318.747-21.213-21.439-21.439c30.708-35.621 47.459-80.294 47.459-127.328 0-47.271-16.921-92.154-47.924-127.863l21.434-21.434c35.137 39.846 56.49 92.121 56.49 149.297 0 56.922-21.161 108.988-56.02 148.767z"/><path d="m256 120c-24.813 0-45 20.187-45 45s20.187 45 45 45 45-20.187 45-45-20.187-45-45-45zm0 60c-8.271 0-15-6.729-15-15s6.729-15 15-15 15 6.729 15 15-6.729 15-15 15z"/><path d="m256 301c-24.813 0-45 20.187-45 45s20.187 45 45 45 45-20.187 45-45-20.187-45-45-45zm0 60c-8.271 0-15-6.729-15-15s6.729-15 15-15 15 6.729 15 15-6.729 15-15 15z"/></g></svg>