<svg height="496pt" viewBox="0 0 496 496" width="496pt" xmlns="http://www.w3.org/2000/svg"><path d="m452.6875 108.289062c6.769531-4.25 11.3125-11.730468 11.3125-20.289062v-16c0-13.230469-10.769531-24-24-24h-45.488281c-42.710938-31.359375-93.289063-48-146.511719-48-136.753906 0-248 111.257812-248 248s111.246094 248 248 248 248-111.257812 248-248c0-50.441406-15.054688-98.457031-43.3125-139.710938zm-20.6875 83.710938v16h-104v-16zm8 32c4.414062 0 8 3.59375 8 8v16c0 4.40625-3.585938 8-8 8h-128c-4.414062 0-8-3.59375-8-8v-16c0-4.40625 3.585938-8 8-8zm0-48h-128c-4.414062 0-8-3.59375-8-8v-16c0-4.40625 3.585938-8 8-8h128c4.414062 0 8 3.59375 8 8v16c0 4.40625-3.585938 8-8 8zm-8-64v16h-104v-16zm16-40v16c0 4.40625-3.585938 8-8 8h-128c-4.414062 0-8-3.59375-8-8v-16c0-4.40625 3.585938-8 8-8h128c4.414062 0 8 3.59375 8 8zm-200-56c41.847656 0 81.886719 11.105469 117.34375 32h-53.34375c-13.230469 0-24 10.769531-24 24v16c0 13.230469 10.769531 24 24 24v16c-13.230469 0-24 10.769531-24 24v16c0 13.230469 10.769531 24 24 24v16c-13.230469 0-24 10.769531-24 24v16c0 13.230469 10.769531 24 24 24h128c13.230469 0 24-10.769531 24-24v-16c0-10.414062-6.710938-19.214844-16-22.527344v-18.953125c9.289062-3.3125 16-12.113281 16-22.527343v-4.496094c10.449219 26.65625 16 55.128906 16 84.496094 0 57.960937-21.414062 110.984374-56.6875 151.6875-4.03125-26.925782-27.265625-47.679688-55.3125-47.679688 0-35.289062-28.710938-64-64-64-6.160156 0-12.214844.878906-18.089844 2.617188-11.652344-15.273438-27.8125-26.015626-45.910156-31.152344v-103.402344c0-7.109375 3.441406-14.054688 9.433594-19.03125 14.34375-11.925781 22.566406-29.320312 22.566406-47.695312 0-24.039063-14.375-46.257813-36.632812-56.59375l-11.367188-5.277344v56.253906l-16 10.664062-16-10.664062v-56.253906l-11.367188 5.277344c-22.257812 10.335937-36.632812 32.554687-36.632812 56.59375 0 18.375 8.222656 35.769531 22.566406 47.695312 5.992188 4.976562 9.433594 11.921875 9.433594 19.03125v109.699219c-8.976562 4.605469-17.089844 10.710937-24 18.023437v-16.738281l-16-8v-6.109375l16-8v-44.9375h-16v-92.28125l-29.574219-19.71875h-18.425781v112h-16v44.945312l16 8v6.109376l-16 8v68.945312c0 3.191406.511719 6.304688 1.246094 9.359375-8.191406 9.601563-13.863282 21.359375-16.109375 34.3125-25.914063-37.441406-41.136719-82.800781-41.136719-131.671875 0-127.929688 104.078125-232 232-232zm-71.191406 108.726562c-10.679688-8.878906-16.808594-21.773437-16.808594-35.390624 0-13.34375 6.007812-25.953126 16-34.6875v37.632812l32 21.335938 32-21.335938v-37.632812c9.992188 8.734374 16 21.34375 16 34.6875 0 13.617187-6.128906 26.511718-16.808594 35.390624-9.65625 8.035157-15.191406 19.457032-15.191406 31.335938v100.402344c-2.648438-.242188-5.304688-.464844-8-.464844-8.28125 0-16.328125 1.214844-24 3.40625v-103.34375c0-11.878906-5.535156-23.300781-15.191406-31.335938zm-48.808594 195.273438c-14.792969 0-28.550781 4.496094-40 12.175781v-55.230469l16-8v-25.890624l-16-8v-19.054688h48v19.054688l-16 8v25.890624l16 8v30.550782c-1.863281 4.0625-3.449219 8.28125-4.679688 12.671875-1.105468-.046875-2.199218-.167969-3.320312-.167969zm-8-120h-16v-94.382812l16 10.664062zm-47.382812 199.609375c-.378907-2.640625-.617188-5.175781-.617188-7.609375 0-30.878906 25.128906-56 56-56s56 25.121094 56 56h16c0-33.03125-22.382812-60.871094-52.769531-69.3125 9.21875-29.742188 37.082031-50.6875 68.769531-50.6875 24.296875 0 46.800781 12.167969 60.183594 32.550781l3.617187 5.503907 6.09375-2.488282c5.792969-2.367187 11.890625-3.566406 18.105469-3.566406 26.472656 0 48 21.527344 48 48 0 .816406-.152344 1.601562-.191406 2.40625-23 6.960938-39.808594 28.347656-39.808594 53.59375h16c0-22.054688 17.945312-40 40-40s40 17.945312 40 40c0 2.929688-.433594 5.878906-1.105469 8.816406-41.550781 39.128906-97.453125 63.183594-158.894531 63.183594-70 0-132.808594-31.207031-175.382812-80.390625zm0 0"/></svg>