<?xml version="1.0"?>
<svg xmlns="http://www.w3.org/2000/svg" viewBox="0 0 512 512" width="512" height="512"><g id="outline"><path d="M288,448H232a8,8,0,0,0,0,16h56a8,8,0,0,0,0-16Z"/><path d="M138.889,208h90.222A18.911,18.911,0,0,0,248,189.111V98.889A18.911,18.911,0,0,0,229.111,80H138.889A18.911,18.911,0,0,0,120,98.889v90.222A18.911,18.911,0,0,0,138.889,208ZM136,98.889A2.892,2.892,0,0,1,138.889,96h90.222A2.892,2.892,0,0,1,232,98.889v90.222A2.892,2.892,0,0,1,229.111,192H138.889A2.892,2.892,0,0,1,136,189.111Z"/><path d="M272.572,322.971l14.856-5.942L273.1,281.2l21.3-28.4-12.8-9.6-24,32a8,8,0,0,0-1.028,7.771Z"/><path d="M344.572,317.029l14.856,5.942,16-40A8,8,0,0,0,374.4,275.2l-24-32-12.8,9.6,21.3,28.4Z"/><rect x="285.537" y="276" width="60.926" height="16" transform="translate(-69.517 462.574) rotate(-66.801)"/><path d="M164.059,174.961a8,8,0,0,0,8.057-.1l40-24a8,8,0,0,0,0-13.72l-40-24A8,8,0,0,0,160,120v48A8,8,0,0,0,164.059,174.961ZM176,134.129,192.451,144,176,153.871Z"/><path d="M328,112a32,32,0,1,0,32,32A32.036,32.036,0,0,0,328,112Zm0,48a16,16,0,1,1,16-16A16.019,16.019,0,0,1,328,160Z"/><path d="M200,256a31.92,31.92,0,0,0-10.666,1.823l5.332,15.086a16,16,0,1,1,0,30.182l-5.332,15.086A32,32,0,1,0,200,256Z"/><path d="M104,256H56a8,8,0,0,0-8,8v48a8,8,0,0,0,8,8h48a8,8,0,0,0,8-8V264A8,8,0,0,0,104,256Zm-8,48H64V272H96Z"/><path d="M502.928,377.856l-16-27.712a8,8,0,0,0-7.407-3.986l-26,1.56-11.648-23.3A8,8,0,0,0,434.718,320H424V176h9.376a24,24,0,0,0,45.248,0H496V160H478.624a24,24,0,0,0-45.248,0H424V134.624A23.985,23.985,0,0,0,454.624,120H496V104H454.624A23.985,23.985,0,0,0,424,89.376V40a24.027,24.027,0,0,0-24-24H112A24.027,24.027,0,0,0,88,40V224H34.889A18.911,18.911,0,0,0,16,242.889v90.222A18.911,18.911,0,0,0,34.889,352H88V472a24.027,24.027,0,0,0,24,24H434.718a8,8,0,0,0,7.155-4.422l11.648-23.3,26,1.56a8,8,0,0,0,7.407-3.986l16-27.712a8,8,0,0,0-.252-8.408L488.325,408l14.351-21.736A8,8,0,0,0,502.928,377.856ZM456,160a8,8,0,1,1-8,8A8.009,8.009,0,0,1,456,160Zm-24-56a8,8,0,1,1-8,8A8.009,8.009,0,0,1,432,104ZM104,40a8.009,8.009,0,0,1,8-8H400a8.009,8.009,0,0,1,8,8v8H104Zm0,24H408v40H392V98.889A18.911,18.911,0,0,0,373.111,80H282.889A18.911,18.911,0,0,0,264,98.889v90.222A18.911,18.911,0,0,0,282.889,208h90.222A18.911,18.911,0,0,0,392,189.111V176h16V320h-5.282a8,8,0,0,0-7.156,4.422l-11.648,23.3-26-1.56a8.017,8.017,0,0,0-7.408,3.986L335.58,376H304v16h34.547l10.564,16-5.282,8H104V352h21.111A18.911,18.911,0,0,0,144,333.111V296h28.687l-10.344,10.343,11.314,11.314,24-24a8,8,0,0,0,0-11.314l-24-24-11.314,11.314L172.687,280H144V242.889A18.911,18.911,0,0,0,125.111,224H104Zm304,56v40H392V120ZM376,98.889v90.222A2.892,2.892,0,0,1,373.111,192H282.889A2.892,2.892,0,0,1,280,189.111V98.889A2.892,2.892,0,0,1,282.889,96h90.222A2.892,2.892,0,0,1,376,98.889ZM34.889,336A2.892,2.892,0,0,1,32,333.111V242.889A2.892,2.892,0,0,1,34.889,240h90.222A2.892,2.892,0,0,1,128,242.889v90.222A2.892,2.892,0,0,1,125.111,336ZM112,480a8.009,8.009,0,0,1-8-8V432H333.742a7.989,7.989,0,0,0,.766,6.144l16,27.712a8.005,8.005,0,0,0,7.408,3.986l26-1.56L389.773,480Zm360.062-67.592L486.6,434.425l-11.056,19.15-26.336-1.581a8,8,0,0,0-7.635,4.408l-11.8,23.6H407.662l-11.8-23.6a8.018,8.018,0,0,0-7.635-4.408l-26.336,1.581-11.056-19.15,14.538-22.017a8,8,0,0,0,0-8.816l-14.538-22.017,11.056-19.15,26.336,1.581a8.019,8.019,0,0,0,7.635-4.408l11.8-23.6h22.111l11.8,23.6a8.009,8.009,0,0,0,7.635,4.408l26.336-1.581,11.056,19.15-14.538,22.017A8,8,0,0,0,472.062,412.408Z"/><path d="M418.718,375a33,33,0,1,0,33,33A33.037,33.037,0,0,0,418.718,375ZM408,416h-4.274A16.958,16.958,0,0,1,408,394.82Zm16,8.149v-32.3a16.987,16.987,0,0,1,0,32.3Z"/><rect x="240" y="344" width="16" height="16"/><rect x="272" y="344" width="32" height="16"/><rect x="240" y="376" width="48" height="16"/><rect x="320" y="344" width="24" height="16"/></g></svg>
