<svg id="Layer_1" enable-background="new 0 0 511.922 511.922" height="512" viewBox="0 0 511.922 511.922" width="512" xmlns="http://www.w3.org/2000/svg"><g><path d="m193.182 248.42c-.54-3.315-.833-6.712-.833-10.178 0-7.122 1.204-13.964 3.389-20.355h-67.575c2.185 6.391 3.389 13.233 3.389 20.355 0 3.465-.292 6.862-.833 10.178z"/><ellipse cx="255.432" cy="238.242" rx="32.55" ry="32.55" transform="matrix(.707 -.707 .707 .707 -93.648 250.397)"/><ellipse cx="256.028" cy="424.528" rx="34.971" ry="34.971" transform="matrix(.987 -.16 .16 .987 -64.696 46.493)"/><path d="m380.143 248.42c-.54-3.315-.833-6.712-.833-10.178 0-7.122 1.204-13.964 3.389-20.355h-67.575c2.185 6.391 3.389 13.233 3.389 20.355 0 3.465-.292 6.862-.833 10.178z"/><path d="m53.433 299.499.094 28.525c.004 1.245.174 2.449.459 3.607 5.059-1.257 10.343-1.935 15.785-1.935 4.859 0 9.59.548 14.15 1.557.093-1.474.141-2.615.139-3.33l-.094-28.529c-4.96 1.257-10.15 1.931-15.495 1.931-5.183-.001-10.216-.642-15.038-1.826z"/><ellipse cx="69.77" cy="395.199" rx="34.971" ry="34.971" transform="matrix(.924 -.383 .383 .924 -145.925 56.783)"/><ellipse cx="68.47" cy="238.242" rx="32.55" ry="32.55" transform="matrix(.707 -.707 .707 .707 -148.408 118.195)"/><path d="m270.978 360.766-.121-61.356c-4.939 1.246-10.105 1.915-15.426 1.915-5.207 0-10.264-.646-15.107-1.841l.121 61.429c4.997-1.224 10.213-1.888 15.582-1.888 5.146-.001 10.146.614 14.951 1.741z"/><path d="m299.205 473.725c-11.538 10.138-26.646 16.306-43.177 16.306-16.53 0-31.639-6.168-43.177-16.306-9.152 9.007-14.833 21.53-14.833 35.387 0 1.552 1.258 2.81 2.81 2.81h110.399c1.552 0 2.81-1.258 2.81-2.81.001-13.857-5.679-26.379-14.832-35.387z"/><path d="m485.329 444.397c-11.538 10.138-26.646 16.306-43.176 16.306s-31.639-6.168-43.177-16.306c-9.152 9.007-14.833 21.53-14.833 35.387 0 1.552 1.258 2.81 2.81 2.81h110.399c1.552 0 2.81-1.258 2.81-2.81 0-13.857-5.681-26.379-14.833-35.387z"/><path d="m112.947 444.397c-11.538 10.138-26.646 16.306-43.177 16.306-16.53 0-31.639-6.168-43.177-16.306-9.152 9.007-14.833 21.53-14.833 35.387 0 1.552 1.258 2.81 2.81 2.81h110.4c1.552 0 2.81-1.258 2.81-2.81 0-13.857-5.681-26.379-14.833-35.387z"/><path d="m180.073 94.311 5.836-4.588v48.214c0 8.431 6.835 15.266 15.266 15.266h39.374l-.125 23.775c4.813-1.179 9.836-1.818 15.007-1.818 5.356 0 10.556.676 15.525 1.938l.125-23.895h39.605c8.431 0 15.266-6.835 15.266-15.266v-48.192l5.804 4.564c2.798 2.2 6.124 3.267 9.427 3.267 4.521 0 8.999-2.001 12.01-5.83 5.212-6.628 4.064-16.225-2.563-21.437-21.333-16.613-65.148-51.574-86.878-68.142-2.726-1.631-5.836-2.345-8.9-2.129-2.968.209-5.888 1.278-8.358 3.22l-5.86 4.607c-18.848 14.809-61.168 48.083-79.433 62.442-6.628 5.211-7.777 14.808-2.567 21.437 5.213 6.629 14.811 7.778 21.439 2.567z"/><path d="m457.984 327.924-.091-28.532c-4.962 1.258-10.153 1.932-15.5 1.932-5.18 0-10.212-.641-15.032-1.824l.091 28.522c.003 1.125.137 2.217.371 3.272 4.615-1.034 9.406-1.598 14.329-1.598 5.395 0 10.635.669 15.654 1.905.12-1.608.181-2.868.178-3.677z"/><circle cx="442.393" cy="238.242" r="32.55"/><path d="m442.152 430.171c19.314 0 34.971-15.657 34.971-34.971s-15.657-34.971-34.971-34.971-34.971 15.657-34.971 34.971 15.657 34.971 34.971 34.971z"/></g></svg>