<svg height="512" viewBox="0 0 60 60" width="512" xmlns="http://www.w3.org/2000/svg"><g id="Page-1" fill="none" fill-rule="evenodd"><g id="006---AR-Phone-Projection" fill="rgb(0,0,0)" fill-rule="nonzero"><path id="Shape" d="m52.192 40.325c-.9912762-1.4670275-2.6515271-2.3399545-4.422-2.325h-3.344l11.411-17.453c.2018671-.2990627.2269735-.6836811.065697-1.0064483-.1612764-.3227673-.483923-.5336247-.8442838-.5517602-.3603608-.0181354-.7025466.1592638-.8954132.4642085l-16.704 25.547h-14.918l-16.704-25.547c-.19286656-.3049447-.53505243-.4823439-.89541323-.4642085-.36036079.0181355-.68300733.2289929-.84428378.5517602-.16127644.3227672-.13617006.7073856.06569701 1.0064483l11.411 17.453h-3.344c-1.771936-.0147333-3.43324546.8598575-4.424 2.329l-7.306 11.05c-.32780034.4768332-.50223965 1.0423654-.5 1.621v4c0 1.6568542 1.34314575 3 3 3h54c1.6568542 0 3-1.3431458 3-3v-4c.0011577-.5753693-.1732759-1.1373941-.5-1.611zm-36.538-.325h1.228l4.281 6.547c.1846545.2825966.4994231.4529552.837.453h16c.3375769-.0000448.6523455-.1704034.837-.453l4.281-6.547h2.227l.95 2.175-.306.153c-1.3298694.6757789-1.9671103 2.2213004-1.5 3.638l1.069 3.206c.3472689 1.058644 1.2553834 1.8356507 2.355 2.015l2.505.42 1.051 2.393h-41.94zm-13.49 12.491 7.308-11.056c.620838-.9102138 1.6563042-1.4489716 2.758-1.435h1.241l-6.125 14h-4.226c-.58477269.0312839-1.08509482-.4154323-1.12-1 .00080568-.1825293.05809442-.360334.164-.509zm55.836 4.509c0 .5522847-.4477153 1-1 1h-54c-.55228475 0-1-.4477153-1-1v-1.208c.35788851.1357606.73723125.2062099 1.12.208h53.76c.3827687-.0017901.7621115-.0722394 1.12-.208zm-1.12-3h-3.226l-1.628-3.711c-.158974-.3642554-.5185648-.5997952-.916-.6l-2.868-.477c-.3645948-.061126-.6657233-.318412-.783-.669l-1.071-3.213c-.16067-.4733302.0528448-.992598.5-1.216l.87-.435c.3077613-.0459094.5766134-.232467.7273297-.5046972.1507164-.2722302.1661195-.5991062.0416703-.8843028l-1-2.29h.242c1.1002376-.0141962 2.1346466.5229008 2.756 1.431l7.318 11.069c.1022462.1466835.1570436.3211975.157.5-.0349052.5845677-.5352273 1.0312839-1.12 1z"/><path id="Shape" d="m29 18c0 .5522847.4477153 1 1 1s1-.4477153 1-1v-2.4l3.474-1.867c.4865629-.261783.668783-.8684371.407-1.355s-.8684371-.668783-1.355-.407l-3.526 1.894-3.526-1.9c-.4865629-.261783-1.093217-.0795629-1.355.407s-.0795629 1.093217.407 1.355l3.474 1.873z"/><path id="Shape" d="m16.526 22.88 13 7c.2959236.1593002.6520764.1593002.948 0l13-7c.3237997-.1743063.525807-.5122652.526-.88v-14c-.0001367-.35174583-.1850653-.6775544-.487-.858-.013-.008-.028-.011-.042-.018l-13-7c-.2959236-.15930021-.6520764-.15930021-.948 0l-13 7c-.014.007-.029.01-.042.018-.2996323.18192763-.4821296.50746337-.481.858v14c.000193.3677348.2022003.7056937.526.88zm1.474-13.207 2.526 1.358c.4865629.261783 1.093217.0795629 1.355-.407s.0795629-1.09321703-.407-1.355l-2.363-1.269 10.889-5.864 10.889 5.864-2.363 1.27c-.4865629.26178297-.668783.8684371-.407 1.355s.8684371.668783 1.355.407l2.526-1.359v11.727l-11 5.926v-3.326c0-.5522847-.4477153-1-1-1s-1 .4477153-1 1v3.326l-11-5.926z"/></g></g></svg>