<svg height="512" viewBox="0 0 74 74" width="512" xmlns="http://www.w3.org/2000/svg"><g id="line_icons" data-name="line icons"><path d="m18.16 68.164h-8.42a1 1 0 0 1 -1-1v-30.341a1 1 0 0 1 1-1h8.42a1 1 0 0 1 1 1v30.341a1 1 0 0 1 -1 1zm-7.42-2h6.42v-28.341h-6.42z"/><path d="m47.86 68.164h-8.41a1 1 0 0 1 -1-1v-20.281a1 1 0 0 1 1-1h8.41a1 1 0 0 1 1 1v20.281a1 1 0 0 1 -1 1zm-7.41-2h6.41v-18.281h-6.41z"/><path d="m33.01 68.164h-8.42a1 1 0 0 1 -1-1v-44.67a1 1 0 0 1 1-1h8.42a1 1 0 0 1 1 1v44.67a1 1 0 0 1 -1 1zm-7.42-2h6.42v-42.67h-6.42z"/><path d="m62.72 68.164h-8.42a1 1 0 0 1 -1-1v-32.281a1 1 0 0 1 1-1h8.42a1 1 0 0 1 1 1v32.281a1 1 0 0 1 -1 1zm-7.42-2h6.42v-30.281h-6.42z"/><path d="m70.055 68.164h-67.655a1 1 0 0 1 0-2h67.65a1 1 0 0 1 0 2z"/><path d="m50.781 23.834c-11.065 0-19.831-9.8-20.2-10.221a1 1 0 0 1 0-1.322c.367-.417 9.133-10.222 20.2-10.222s19.83 9.805 20.2 10.222a1 1 0 0 1 0 1.322c-.37.418-9.135 10.221-20.2 10.221zm-18.068-10.882c2.146 2.162 9.507 8.882 18.068 8.882 8.577 0 15.924-6.718 18.068-8.881-2.149-2.162-9.507-8.884-18.068-8.884-8.581 0-15.925 6.719-18.068 8.883z"/><path d="m50.475 23.833a10.881 10.881 0 1 1 10.881-10.881 10.893 10.893 0 0 1 -10.881 10.881zm0-19.762a8.881 8.881 0 1 0 8.881 8.881 8.891 8.891 0 0 0 -8.881-8.881z"/><path d="m49.957 18.466v-.8a4.432 4.432 0 0 1 -2.331-.666l.365-1.021a4.058 4.058 0 0 0 2.194.655c1.082 0 1.814-.625 1.814-1.493 0-.839-.595-1.357-1.723-1.814-1.554-.609-2.513-1.31-2.513-2.636a2.5 2.5 0 0 1 2.3-2.453v-.8h.944v.737a4.062 4.062 0 0 1 1.981.533l-.381 1.006a3.68 3.68 0 0 0 -1.92-.518c-1.173 0-1.615.7-1.615 1.31 0 .792.564 1.189 1.89 1.737 1.569.64 2.361 1.433 2.361 2.789a2.65 2.65 0 0 1 -2.407 2.59v.844z"/><path d="m51.042 18.591h-1.21v-.8a4.5 4.5 0 0 1 -2.278-.691l-.077-.055.451-1.26.133.089a3.913 3.913 0 0 0 2.125.634c.994 0 1.688-.563 1.688-1.368 0-.733-.477-1.224-1.645-1.7-1.345-.527-2.591-1.227-2.591-2.752a2.605 2.605 0 0 1 2.3-2.558v-.817h1.2v.742a4.156 4.156 0 0 1 1.92.546l.091.053-.475 1.246-.127-.073a3.564 3.564 0 0 0 -1.859-.5c-1.1 0-1.49.638-1.49 1.185 0 .668.424 1.047 1.813 1.621 1.709.7 2.438 1.566 2.438 2.9a2.766 2.766 0 0 1 -2.407 2.7zm-.96-.25h.71v-.824l.1-.018a2.538 2.538 0 0 0 2.3-2.467c0-1.237-.661-2.011-2.283-2.673-1.334-.551-1.968-.969-1.968-1.853 0-.714.538-1.435 1.74-1.435a3.775 3.775 0 0 1 1.855.463l.291-.769a4 4 0 0 0 -1.827-.465h-.121v-.737h-.7v.779l-.1.017a2.385 2.385 0 0 0 -2.2 2.33c0 1.3.972 1.947 2.434 2.52 1.264.512 1.8 1.089 1.8 1.93a1.721 1.721 0 0 1 -1.938 1.618 4.187 4.187 0 0 1 -2.129-.591l-.281.783a4.472 4.472 0 0 0 2.183.594h.123z"/></g></svg>